#N canvas -8 -8 1366 686 10;
#X obj 11 91 cnv 15 73 83 empty empty empty 20 12 0 14 -261234 -66577
0;
#X obj 15 251 osc~;
#X obj 15 274 +~ \$1;
#X obj 15 298 /~ 2;
#X obj 15 322 abs~;
#X floatatom 15 156 5 0 0 0 - - -;
#X floatatom 51 156 5 0 0 0 - - -;
#X obj 15 106 vsl 15 45 0 3 0 0 empty empty LFO 0 -9 0 10 -262144 -1
-1 0 1;
#X obj 51 106 vsl 15 45 0 1 0 0 empty empty OffSet -8 -9 0 10 -262144
-1 -1 0 1;
#X obj 18 361 *~;
#X obj -36 315 inlet~;
#X obj 19 385 outlet~;
#X connect 1 0 2 0;
#X connect 2 0 3 0;
#X connect 3 0 4 0;
#X connect 4 0 9 1;
#X connect 5 0 1 0;
#X connect 6 0 2 1;
#X connect 7 0 5 0;
#X connect 8 0 6 0;
#X connect 9 0 11 0;
#X connect 10 0 9 0;
#X coords 0 0 1 1 75 85 1 10 90;
