#N canvas -8 -8 1366 686 10;
#X obj 11 91 cnv 15 259 320 empty empty empty 20 12 0 14 -204786 -66577
0;
#X obj 14 103 tgl 30 0 empty empty ON 3 -7 0 10 -262144 -1 -1 0 1;
#X obj 750 45 metro;
#X obj 750 69 float;
#X floatatom 750 111 5 0 0 0 - - -;
#X obj 811 68 + 1;
#X floatatom 49 104 5 0 0 0 - - -;
#X obj 21 140 hradio 30 1 0 8 empty empty empty 0 -8 0 10 -262144 -1
-1 2;
#X obj 750 198 f;
#X obj 781 197 f;
#X obj 813 197 f;
#X obj 844 196 f;
#X obj 877 196 f;
#X obj 908 195 f;
#X obj 940 195 f;
#X obj 970 195 f;
#X obj 750 90 mod 8;
#X obj 750 163 select 0 1 2 3 4 5 6 7;
#X obj 107 106 hsl 160 20 50 1500 0 0 empty empty Metro -2 -8 0 10
-262144 -1 -1 3800 1;
#X obj 81 389 hradio 20 1 0 4 empty empty Octave -40 10 0 10 -262144
-1 -1 3;
#X obj 785 473 outlet;
#X obj 1208 552 outlet;
#X obj 28 182 vradio 15 1 1 12 empty empty empty 0 -8 0 10 -262144
-1 -1 3;
#X obj 162 525 - 12;
#X obj 162 553 abs;
#X floatatom 162 581 5 0 0 0 - - -;
#X obj 58 182 vradio 15 1 1 12 empty empty empty 0 -8 0 10 -262144
-1 -1 3;
#X obj 192 525 - 12;
#X obj 192 553 abs;
#X floatatom 192 581 5 0 0 0 - - -;
#X obj 88 182 vradio 15 1 1 12 empty empty empty 0 -8 0 10 -262144
-1 -1 10;
#X obj 222 525 - 12;
#X obj 222 553 abs;
#X floatatom 222 581 5 0 0 0 - - -;
#X obj 118 182 vradio 15 1 1 12 empty empty empty 0 -8 0 10 -262144
-1 -1 10;
#X obj 252 525 - 12;
#X obj 252 553 abs;
#X floatatom 252 581 5 0 0 0 - - -;
#X obj 148 182 vradio 15 1 1 12 empty empty empty 0 -8 0 10 -262144
-1 -1 10;
#X obj 282 525 - 12;
#X obj 282 553 abs;
#X floatatom 282 581 5 0 0 0 - - -;
#X obj 178 182 vradio 15 1 1 12 empty empty empty 0 -8 0 10 -262144
-1 -1 0;
#X obj 312 525 - 12;
#X obj 312 553 abs;
#X floatatom 312 581 5 0 0 0 - - -;
#X obj 208 182 vradio 15 1 1 12 empty empty empty 0 -8 0 10 -262144
-1 -1 4;
#X obj 342 525 - 12;
#X obj 342 553 abs;
#X floatatom 342 581 5 0 0 0 - - -;
#X obj 238 182 vradio 15 1 1 12 empty empty empty 0 -8 0 10 -262144
-1 -1 6;
#X obj 372 525 - 12;
#X obj 372 553 abs;
#X floatatom 372 581 5 0 0 0 - - -;
#X obj 785 431 + \$1;
#X obj 81 418 * 12;
#X obj 785 450 mtof;
#X obj 785 409 + 28;
#X connect 1 0 2 0;
#X connect 2 0 3 0;
#X connect 3 0 5 0;
#X connect 3 0 16 0;
#X connect 4 0 7 0;
#X connect 5 0 3 1;
#X connect 6 0 2 1;
#X connect 7 0 17 0;
#X connect 8 0 21 0;
#X connect 8 0 57 0;
#X connect 9 0 21 0;
#X connect 9 0 57 0;
#X connect 10 0 21 0;
#X connect 10 0 57 0;
#X connect 11 0 21 0;
#X connect 11 0 57 0;
#X connect 12 0 21 0;
#X connect 12 0 57 0;
#X connect 13 0 21 0;
#X connect 13 0 57 0;
#X connect 14 0 21 0;
#X connect 14 0 57 0;
#X connect 15 0 21 0;
#X connect 15 0 57 0;
#X connect 16 0 4 0;
#X connect 17 0 8 0;
#X connect 17 1 9 0;
#X connect 17 2 10 0;
#X connect 17 3 11 0;
#X connect 17 4 12 0;
#X connect 17 5 13 0;
#X connect 17 6 14 0;
#X connect 17 7 15 0;
#X connect 18 0 6 0;
#X connect 19 0 55 0;
#X connect 22 0 23 0;
#X connect 23 0 24 0;
#X connect 24 0 25 0;
#X connect 25 0 8 1;
#X connect 26 0 27 0;
#X connect 27 0 28 0;
#X connect 28 0 29 0;
#X connect 29 0 9 1;
#X connect 30 0 31 0;
#X connect 31 0 32 0;
#X connect 32 0 33 0;
#X connect 33 0 10 1;
#X connect 34 0 35 0;
#X connect 35 0 36 0;
#X connect 36 0 37 0;
#X connect 37 0 11 1;
#X connect 38 0 39 0;
#X connect 39 0 40 0;
#X connect 40 0 41 0;
#X connect 41 0 12 1;
#X connect 42 0 43 0;
#X connect 43 0 44 0;
#X connect 44 0 45 0;
#X connect 45 0 13 1;
#X connect 46 0 47 0;
#X connect 47 0 48 0;
#X connect 48 0 49 0;
#X connect 49 0 14 1;
#X connect 50 0 51 0;
#X connect 51 0 52 0;
#X connect 52 0 53 0;
#X connect 53 0 15 1;
#X connect 54 0 56 0;
#X connect 55 0 54 1;
#X connect 56 0 20 0;
#X connect 57 0 54 0;
#X coords 0 0 1 1 261 321 1 10 90;
