#N canvas 0 0 1366 686 10;
#X obj 10 90 cnv 15 70 70 empty empty empty 20 12 0 14 -147448 -66577
0;
#X floatatom 13 116 5 0 0 0 - - -;
#X obj 176 133 phasor~;
#X obj 263 88 / 100;
#X floatatom 54 116 3 0 100 0 - - -;
#X obj 176 159 expr~ $v1 > $v2;
#X obj 192 264 *~;
#X obj 15 138 hsl 60 20 0 1 0 0 empty empty empty -2 -8 0 10 -262144
-1 -1 0 1;
#X obj 387 167 loadbang;
#X msg 416 206 80;
#X msg 379 206 220;
#X obj 205 385 outlet~;
#X obj 122 4 inlet frec;
#X obj 262 4 inlet phase;
#X text 35 89 Square;
#X connect 1 0 2 0;
#X connect 2 0 5 0;
#X connect 3 0 5 1;
#X connect 4 0 3 0;
#X connect 5 0 6 0;
#X connect 6 0 11 0;
#X connect 7 0 6 1;
#X connect 8 0 9 0;
#X connect 8 0 10 0;
#X connect 9 0 4 0;
#X connect 10 0 1 0;
#X connect 12 0 1 0;
#X connect 13 0 4 0;
#X coords 0 0 1 1 70 70 1 10 90;
